PathFileType	4	(X/Y/Z)	Kaydara																																																																																																																									
DataRate	CameraRate	NumFrames	NumMarkers	Units	OrigDataRate	OrigDataStartFrame	OrigNumFrames																																																																																																																					
30	30	9	41	mm	30	159	180																																																																																																																					
Frame#	Time	SALE_LFHD			SALE_RFHD			SALE_LBHD			SALE_RBHD			SALE_LFTShould			SALE_RFTShould			SALE_LRRShould			SALE_RRRShould			SALE_T10			SALE_STRN			SALE_TRUN			SALE_LSHO			SALE_LUPA			SALE_LELB			SALE_LFRM			SALE_LWRA			SALE_LWRB			SALE_LFIN			SALE_RSHO			SALE_RUPA			SALE_RELB			SALE_RFRM			SALE_RWRB			SALE_RFIN			SALE_LFWT			SALE_RFWT			SALE_LBWT			SALE_RBWT			SALE_LTHI			SALE_LKNE			SALE_RWRA			SALE_LSHN			SALE_LANK			SALE_LHEE			SALE_LTOE			SALE_RTHI			SALE_RKNE			SALE_RSHN			SALE_RANK			SALE_RHEE			SALE_RTOE		
		X1	Y1	Z1	X2	Y2	Z2	X3	Y3	Z3	X4	Y4	Z4	X5	Y5	Z5	X6	Y6	Z6	X7	Y7	Z7	X8	Y8	Z8	X9	Y9	Z9	X10	Y10	Z10	X11	Y11	Z11	X12	Y12	Z12	X13	Y13	Z13	X14	Y14	Z14	X15	Y15	Z15	X16	Y16	Z16	X17	Y17	Z17	X18	Y18	Z18	X19	Y19	Z19	X20	Y20	Z20	X21	Y21	Z21	X22	Y22	Z22	X23	Y23	Z23	X24	Y24	Z24	X25	Y25	Z25	X26	Y26	Z26	X27	Y27	Z27	X28	Y28	Z28	X29	Y29	Z29	X30	Y30	Z30	X31	Y31	Z31	X32	Y32	Z32	X33	Y33	Z33	X34	Y34	Z34	X35	Y35	Z35	X36	Y36	Z36	X37	Y37	Z37	X38	Y38	Z38	X39	Y39	Z39	X40	Y40	Z40	X41	Y41	Z41
																																																																																																																												
158	5.283	195.28376	1600.52536	1723.38104	64.61545	1615.10635	1725.63965	183.79034	1546.76453	1601.15738	57.47618	1561.55396	1610.51361	178.57931	1332.76382	1745.25726	36.09881	1332.53281	1737.69806	180.21446	1392.23663	1630.52979	29.90912	1400.41306	1632.17865	104.34206	1244.50081	1557.85263	99.82069	1260.08636	1786.75446	94.48482	1171.94206	1822.95502	295.77484	1362.28638	1681.27182	340.25112	1149.2012	1675.3302	330.97607	1038.9621	1665.65598	355.15278	960.8709	1753.73795	292.63723	895.52391	1891.49063	358.36269	864.66026	1866.76086	356.89568	864.57291	1928.47733	-66.16966	1367.49771	1667.07642	-82.68947	1161.79596	1556.99982	-133.27973	1060.58464	1564.88388	-132.05645	956.21391	1523.91129	-173.3239	817.62077	1515.36392	-198.35983	762.64008	1546.11435	238.53334	929.24316	1725.77194	-38.31139	913.18527	1728.41995	172.99679	982.41631	1559.34418	-1.30129	968.5463	1555.39185	235.31065	648.3075	1533.73642	221.5473	467.45659	1585.94345	-146.08379	800.76126	1582.82028	209.35226	268.764	1552.67395	198.18539	94.14876	1475.33539	158.72083	50.86308	1403.14758	164.7298	49.68368	1599.74503	-48.73311	650.64621	1686.99188	-25.53014	558.70907	1863.40073	17.91376	354.55578	1909.67941	-23.30474	93.45359	1891.78741	-26.07566	60.22328	2021.05713	32.46923	22.19023	1840.26398
159	5.317	188.24915	1590.29495	1770.63416	57.34213	1603.5553	1772.37061	177.64317	1535.76157	1648.62289	51.17397	1549.40796	1657.40036	172.1209	1320.72464	1793.99612	30.84269	1319.83673	1783.91342	176.55188	1382.35199	1680.08865	26.1921	1389.63135	1678.64426	103.10158	1234.32831	1605.42313	94.11717	1247.30118	1833.55545	88.9236	1159.12163	1869.73541	290.94429	1353.82355	1735.02457	338.14018	1141.34293	1730.28595	330.91652	1030.9761	1722.0195	350.92865	964.23668	1820.61111	281.32708	921.88103	1963.19733	348.67928	887.15927	1948.13995	342.58965	897.55219	2008.6058	-70.24061	1356.26587	1711.82175	-83.72145	1154.19006	1596.61987	-135.33647	1053.76503	1598.38593	-133.5971	951.04645	1551.828	-175.47947	812.86377	1537.28699	-203.56529	757.79457	1565.48477	235.39919	921.47087	1775.62622	-40.04955	901.83762	1782.28271	168.61	972.17117	1608.31329	-6.1821	955.49126	1607.47391	230.44874	648.7957	1573.53851	220.82077	465.13268	1615.52155	-151.50237	793.61969	1604.71313	207.98134	267.80773	1567.66647	196.18214	98.14347	1479.04922	155.34428	58.51976	1404.87717	163.87962	49.38873	1600.46783	-45.00342	629.67941	1719.48853	-31.388	533.12531	1895.54367	14.52946	353.0368	1970.50262	-34.15139	98.64865	2014.0416	-29.95502	88.83328	2149.39911	16.2465	16.4827	1972.6152
160	5.35	179.97355	1580.63751	1818.0307	48.78985	1592.18536	1819.18243	170.63038	1526.24146	1695.83481	43.9395	1538.41919	1703.89923	165.82676	1310.53589	1841.02753	24.4426	1309.13116	1828.69858	171.49887	1372.04681	1726.38565	21.37974	1378.1369	1722.67303	100.55647	1222.42203	1652.64893	87.68806	1236.84692	1879.617	82.52909	1148.64601	1916.00372	285.16773	1345.72311	1784.36462	334.12712	1133.51013	1783.14423	329.739	1023.81042	1775.15533	346.49944	967.51564	1880.80185	272.29603	942.45193	2024.13788	338.60958	905.12039	2015.96237	330.93788	924.46838	2075.73212	-75.36643	1344.59518	1754.55536	-86.67317	1143.98972	1638.50555	-138.46708	1044.13193	1636.74332	-134.99646	942.29034	1589.85794	-177.99528	805.17563	1568.19244	-208.04113	749.96887	1593.60825	234.06803	910.7341	1826.2941	-41.82065	890.31937	1837.57629	163.86536	959.45877	1660.51239	-12.03444	941.01669	1660.2684	226.31779	646.64246	1618.26416	221.70361	460.33115	1650.45181	-157.71418	784.94659	1637.57294	209.22337	266.08418	1588.4198	199.08855	103.93981	1485.99472	160.72807	68.6849	1408.08228	164.55172	48.51296	1602.21741	-47.36873	615.69054	1773.54828	-30.9877	517.10869	1949.9437	12.58973	346.22978	2023.36945	-34.75201	99.99193	2086.65085	-22.14679	95.28711	2221.90384	15.37448	9.16568	2047.10846
161	5.383	170.94236	1573.47443	1865.07187	39.45764	1583.6908	1865.80338	162.49031	1520.35843	1742.16797	35.6865	1531.26572	1749.7377	158.9608	1304.92432	1887.1286	17.31834	1301.26419	1872.7919	164.94043	1363.26996	1770.45349	14.8994	1367.42035	1764.62082	96.69278	1210.32814	1700.5809	80.66261	1231.2236	1926.25366	75.76524	1143.84247	1964.70917	278.68811	1339.63013	1829.37683	329.0638	1128.05847	1829.79004	326.77307	1018.9959	1823.97202	342.12696	968.66905	1933.27271	266.18584	953.22914	2076.2468	332.04754	914.70604	2072.13089	324.17202	939.2775	2129.55078	-81.68086	1333.51776	1796.00037	-90.38835	1131.66718	1682.0195	-142.77913	1032.48978	1680.04623	-138.82303	931.17012	1633.01239	-182.19803	795.41664	1609.37775	-211.71053	739.10492	1632.16675	230.22293	899.9456	1883.05786	-48.22752	885.3476	1892.80701	160.63789	948.50945	1716.40228	-16.71385	934.64066	1716.99127	223.71084	642.27371	1669.33853	219.55671	454.92062	1694.74701	-162.15277	772.92442	1678.25562	210.20887	265.09155	1616.1702	207.14146	112.49413	1497.96295	173.69545	85.09372	1415.52902	166.98179	47.37022	1605.7222	-58.75054	615.86403	1840.75363	-32.81448	516.99684	2006.33972	15.14013	332.23267	2072.45819	-33.7638	78.80804	2110.97214	-18.2556	56.12268	2242.24976	6.31902	6.71983	2060.81421
162	5.417	161.92533	1573.58536	1910.40985	30.25247	1583.7207	1910.99304	153.45877	1521.14105	1787.09045	26.53312	1532.01538	1794.58817	151.97392	1306.48712	1933.41125	9.36155	1300.04028	1917.19254	157.61602	1361.01944	1814.35379	6.90572	1362.15576	1806.21689	91.7144	1204.2659	1749.22424	73.36613	1233.09761	1974.62692	69.07408	1147.21924	2015.9758	272.13371	1338.04916	1872.56027	323.65425	1126.9841	1871.82816	320.87029	1017.0047	1867.26135	338.10783	966.6906	1977.21344	263.43182	951.38168	2119.85703	328.91788	912.36732	2116.14136	321.69933	938.30292	2173.27515	-89.34245	1326.54312	1837.9509	-94.77401	1120.42221	1728.99063	-147.98093	1021.90536	1728.93311	-143.58938	920.70999	1683.50098	-186.95086	785.74677	1660.7724	-213.6655	728.27644	1683.46802	226.35334	896.83601	1941.15204	-48.92974	889.02	1950.10101	161.39271	945.96275	1773.08746	-20.0929	941.2146	1774.10522	214.876	637.1101	1728.49609	208.86192	449.02508	1755.73746	-164.24944	763.17535	1730.46265	204.53865	265.33499	1654.46503	212.69499	129.39751	1519.3808	184.96557	113.27632	1432.37549	168.25848	45.5607	1612.51312	-62.16668	618.26427	1888.23853	-35.26637	512.51446	2046.34613	21.02293	330.54802	2109.59335	-29.20995	77.35931	2138.00323	-17.35574	36.09092	2270.92072	21.23948	20.21911	2077.56851
163	5.45	152.02766	1581.14075	1953.71613	20.63344	1591.99234	1954.36493	143.45148	1528.37799	1830.82535	16.49471	1540.0351	1838.26248	144.16005	1315.88974	1980.07874	1.77379	1306.41678	1962.95837	149.84586	1368.44757	1860.80673	-1.33253	1366.23245	1851.08871	87.21137	1209.56604	1797.26776	66.58953	1242.07603	2022.64496	63.49133	1157.49718	2066.33423	264.68624	1346.06354	1919.47784	316.46404	1134.7554	1911.21796	313.98331	1025.10727	1906.16989	334.33613	966.10794	2011.95938	262.58154	938.71933	2154.47174	328.08853	900.64331	2146.12106	322.41779	921.62003	2205.03952	-97.07868	1329.01962	1882.35947	-100.6716	1118.20862	1780.5835	-152.55612	1019.2601	1784.83856	-147.90953	917.27028	1741.77109	-189.11442	781.29173	1724.68048	-213.22582	723.64029	1749.48318	220.69555	902.40578	1995.11337	-49.80446	906.96304	2000.64392	165.0247	952.18872	1825.49286	-15.09124	958.33061	1822.81143	200.22917	624.0451	1799.40948	192.70977	437.01302	1841.81305	-163.21318	761.3623	1795.25757	200.18299	268.40378	1710.9024	212.68108	156.65057	1555.82779	186.50621	158.8133	1468.08746	167.94197	43.21712	1623.88947	-68.82968	637.99999	1928.28842	-29.7044	528.32802	2090.77972	19.81696	335.22053	2132.48703	-29.37423	81.25137	2148.26126	-16.89109	35.93179	2273.57224	14.13063	18.09379	2082.39456
164	5.483	141.5079	1589.24484	1996.23581	10.33422	1598.96515	1997.21283	133.23363	1536.52298	1873.58276	6.22386	1546.74362	1881.5271	137.46022	1326.9458	2025.16724	-4.06744	1315.21194	2008.68225	141.72585	1378.60504	1906.47598	-7.70957	1372.88528	1896.84174	83.13833	1218.65875	1842.74094	61.65749	1253.39188	2069.13345	60.2827	1169.18686	2114.00604	256.84526	1360.00336	1965.09781	311.48552	1149.90875	1952.90482	308.76999	1042.57103	1942.15836	331.33286	969.3914	2040.01053	261.51609	918.97377	2179.80408	328.82828	885.0946	2163.70331	324.91673	894.58534	2223.95172	-102.59057	1337.15988	1928.57437	-106.09581	1124.42543	1834.54315	-155.12791	1023.56422	1844.10782	-150.02392	919.11423	1806.00128	-189.05947	781.08665	1798.48831	-211.33873	724.35722	1828.3078	215.18848	908.8356	2040.39429	-55.85608	923.19496	2043.74969	167.38714	955.74364	1870.76019	-10.98686	969.01497	1866.29944	184.8291	603.2753	1876.71097	186.03853	425.30064	1938.32397	-159.22544	763.04642	1865.4985	193.0019	273.80264	1785.09521	207.81225	194.12207	1612.18521	180.63078	212.93139	1528.48892	170.94728	67.08537	1657.32864	-79.73678	654.31068	1965.57449	-42.51684	530.30483	2108.23471	11.15986	336.60843	2146.42365	-32.45352	78.88019	2148.76282	-18.57128	35.63374	2275.96344	15.1328	17.14737	2084.79202
165	5.517	132.48304	1594.39911	2038.51059	1.09377	1601.71524	2040.09827	124.55888	1540.65491	1916.24191	-2.56259	1548.66318	1924.73816	134.25845	1334.76395	2068.24829	-7.18416	1320.42526	2054.91898	134.83011	1384.91364	1949.60342	-13.55325	1377.42233	1943.0748	77.23346	1224.75121	1886.15448	60.11209	1261.32698	2113.9212	61.12149	1176.56502	2158.02032	251.4171	1368.40714	2004.17252	310.9215	1160.92392	1993.42224	307.22666	1055.32791	1978.0072	330.64636	969.61548	2065.99411	261.01671	895.14069	2197.70111	329.47765	867.47589	2174.758	326.21391	862.35504	2234.7377	-107.19423	1342.43286	1977.1907	-110.68017	1128.32001	1888.51044	-157.54436	1025.57999	1904.48944	-151.28359	917.83638	1872.88116	-188.75437	778.54507	1876.79169	-209.81527	723.88695	1912.52151	214.98302	910.0061	2079.8114	-59.26381	933.45924	2088.32779	162.9421	953.63701	1910.72952	-14.2018	972.50397	1909.59076	171.8185	588.2127	1951.54572	186.03724	421.45599	2036.92276	-158.48881	766.99883	1945.47348	187.87241	286.21977	1871.87729	195.53917	229.29922	1689.27887	157.49394	253.35274	1610.50629	179.24498	96.7609	1724.37988	-85.22804	660.39581	1993.99261	-46.5949	527.80991	2127.07535	4.39824	336.31271	2151.70517	-33.96677	78.82785	2149.11957	-20.62082	34.2077	2278.79669	12.81464	18.10587	2086.03317
166	5.55	126.61592	1597.48215	2080.07492	-4.87497	1602.77084	2082.88406	118.38966	1542.68509	1958.30948	-8.67069	1548.78464	1967.90283	133.93765	1337.7919	2107.93854	-8.03857	1321.27167	2100.07172	130.10839	1386.28021	1988.99445	-19.34395	1377.95685	1988.49258	69.90563	1225.7872	1928.29559	62.39126	1262.67906	2156.85989	66.17961	1176.59142	2198.60886	248.63232	1369.81491	2039.26605	310.58252	1162.75986	2025.06226	307.93003	1055.87601	2011.8074	332.46372	963.34	2088.27301	263.73646	867.28653	2205.16403	334.99752	848.44826	2181.81763	326.36463	828.59695	2240.14816	-111.44525	1341.61407	2026.72424	-118.17561	1123.73474	1943.64105	-161.22318	1020.67757	1966.17691	-153.81233	910.57816	1942.71469	-187.67256	770.55099	1958.37982	-208.36138	719.81865	1999.6254	215.98709	909.21959	2116.85257	-59.25183	934.12308	2132.92648	154.83147	950.05478	1948.21838	-21.90144	974.62593	1953.09891	165.75653	581.43196	2027.18582	191.07632	428.03867	2131.99219	-158.19944	767.44217	2028.20068	188.51816	301.0116	1965.05249	182.57818	250.33409	1780.86395	137.62935	274.36056	1705.59708	175.73917	116.33813	1813.18314	-89.8267	667.09061	2015.66986	-58.84397	524.77398	2136.78757	-2.30454	335.94219	2155.57495	-35.9295	78.10482	2148.10379	-22.05586	33.513	2278.30368	12.93398	18.05439	2085.83572
